<svg id="Layer_1" data-name="Layer 1" xmlns="http://www.w3.org/2000/svg" viewBox="0 0 778.75 171.49"><defs><style>.cls-1{fill:#fff;stroke:#fff;stroke-miterlimit:10;}</style></defs><title>mincoach</title><path class="cls-1" d="M727.42,815.47c1.74-11.2,9-39.32,17.42-66.7-19.41,29.87-41.56,65.71-55,96.57-1.49,3.48-5.23,4.23-8.46,1-2.74-2.74-4.48-7-4.48-12.44a42.72,42.72,0,0,1,3.48-15.68c10.2-24.89,49.28-90.1,75.41-125.19,3-4,7-5.48,11.7-1.74,6.72,5.72,10.2,12.2,10.2,20.16,0,4.48-1.24,10.7-3.48,17.92-7.72,22.4-12.69,37.58-21.65,70.93,26.13-39.57,52.76-64,80.39-107.77,3.24-5.23,6.47-5.48,11.2-1a24.57,24.57,0,0,1,7.22,17.17c0,6.72-2.74,13.69-6,20.41-17.17,32.11-41.81,81.39-54,116.23-1.74,5-4,5-8,1.49-3-2.74-5.72-7-5.72-14.19a53.62,53.62,0,0,1,2-14.19v0.25c3-11.7,15.18-37.83,27.38-62.72-21.9,28.12-46,61.72-60.73,88.35-2.74,5-5,5-8.71,2.24-6.72-5.23-11-11.95-11-22.4A56.12,56.12,0,0,1,727.42,815.47Z" transform="translate(-676.4 -678.3)"/><path class="cls-1" d="M835.69,847.08c-15.18,0-21.9-8.71-21.9-21.16,0-4.73,1-10,3-16.43,6.22-17.42,22.15-46.29,31.36-59.23,3.73-5,6.72-5.48,10-1.74,4.73,5,6.72,15.68.25,28.12-4.73,10.7-16.18,29.37-20.41,39.32-2.24,5.72-3.48,11-3.48,14.93s1,6.22,3.73,6.22c10,0,22.9-16.68,30.61-33.6,2-4.48,5.23-4,7.47.5,2.24,4.23,2,10.45-1.24,16.92C867.54,836.63,850.37,847.08,835.69,847.08Zm31.86-126.93c7,0,13.69,9,13.69,16.18,0,6.72-3.73,12.44-10,12.44-8,0-14.68-7.47-14.68-15.18C856.59,726.62,861.82,720.15,867.54,720.15Z" transform="translate(-676.4 -678.3)"/><path class="cls-1" d="M906.37,758.23a31.78,31.78,0,0,1-.25,5c10.7-10,22.65-18.17,31.61-18.17,7.22,0,13.94,8.71,13.94,18.17,0,5.48-4.48,13.44-12.44,27.38-8,12.69-16.43,29.12-16.43,38.33,0,5.23,1.74,8.46,5,8.46,8.46,0,21.4-16.18,30.36-32.85,2.49-4.73,6-4.48,8.21-1,2,3,2.24,10.7-1.24,17.42-7,13.69-25.14,26.88-40.07,26.88-16.68,0-23.89-8.46-23.89-21.4,0-13.44,11.45-36.34,21.16-51.77,5.23-8.21,9.21-14.68,7.47-14.68-2.24,0-14.44,7-28.12,22.4-13.69,14.44-24.89,38.83-35.09,61.23-1.74,4-5,5.48-9,1.49a18.16,18.16,0,0,1-5.48-13.69,45.58,45.58,0,0,1,2.24-12.94c4.73-13.94,23.89-48.78,39.32-71.93,3.24-4.73,7-4.48,9.46,0A22.48,22.48,0,0,1,906.37,758.23Z" transform="translate(-676.4 -678.3)"/><path class="cls-1" d="M1103.23,791.58a20.34,20.34,0,0,1,1.74,8.21c0,14.44-13.44,28.87-22.4,35.59a55.06,55.06,0,0,1-32.11,10.2,44.54,44.54,0,0,1-21.9-5.23c-11.7-6.22-21.9-21.9-22.4-42.31-1-50.27,43.56-95.32,71.68-108,6.47-2.49,13.44-4.23,19.66-4.23s11.95,1.74,16.18,5.23c8.46,7.47,14.93,17.17,14.93,26.88a32.26,32.26,0,0,1-3.48,14.44,172.16,172.16,0,0,0-9.46,22.4c-1.24,4.23-4.73,6.72-9.71,3.73a18.45,18.45,0,0,1-8.46-15.93,30.91,30.91,0,0,1,1.49-9.21,106.41,106.41,0,0,1,4.23-11.45c3.48-8.71,6.47-16.68,3.48-19.91-6-6.47-41.32,15.18-62,48.53-11,17.67-15.68,38.08-15.68,53,0,21.4,9.46,30.86,18.42,30.86,13.69,0,31.36-15.93,45.79-43.56C1095,787.35,1100.74,785.85,1103.23,791.58Z" transform="translate(-676.4 -678.3)"/><path class="cls-1" d="M1188.34,794.07c-5.23,20.66-21.16,45-40.07,51.52a27.84,27.84,0,0,1-9,1.49c-8.21,0-17.42-3.48-24.39-12.69a35.2,35.2,0,0,1-7-21.65c0-11,4-23.15,10.45-34.84,11.2-19.91,26.88-32.35,43.31-32.35,7.22,0,11.7,2.74,16.43,9.21,7,8.21,13.94,10,11.7,31.11,6.47,0,7,2.24,5,4.73A10.41,10.41,0,0,1,1188.34,794.07Zm-55,40.32c6.47,0,16.43-9.21,25.64-26.13,3.73-6.47,6.72-12.69,8.21-17.92-8-5-13.19-11.45-15.18-20.16a80,80,0,0,0-14.19,18.67c-6.47,11.95-10.45,25.88-10.45,35.09C1127.36,831.4,1129.6,834.39,1133.34,834.39Zm41.32-68.44c0-3.73-2-5.23-3.73-5.23-1.49,0-3.73,2-3.73,6,0,4.48,1.24,11,4,14.19A41.65,41.65,0,0,0,1174.65,765.94Z" transform="translate(-676.4 -678.3)"/><path class="cls-1" d="M1249.81,744c9,0,14.44,4.48,16.68,11l4.73-7.72c3-5,7.22-5.23,10.2-1.74,4.23,5,6.47,15.93,0,28.87-6.47,13.69-27.38,40.82-27.38,57.49,0,3.73,1,6,3.48,6,9,0,21.4-16.92,29.62-33.1,2.74-5,5-5.23,7.47,0a20.66,20.66,0,0,1-1,16.18c-6.47,13.69-22.4,26.88-37.58,26.88-12.44,0-19.66-6.47-21.65-15.68-7.22,7-18.42,14.68-28.37,14.68-14.68,0-22.65-10.7-22.65-25.39,0-10.7,4.48-24.64,13.44-37.08C1216.71,755.74,1237.12,744,1249.81,744Zm-8.71,55.75c9.71-16.92,14.19-29.12,14.19-35.59,0-3-.5-4.73-3-4.73-5,0-22.15,15.68-34.84,36.09-7.47,11.7-11.7,24.89-11.7,32.85,0,4.48,1,7.47,3.48,7.47C1217.45,835.88,1228.9,820.7,1241.1,799.79Z" transform="translate(-676.4 -678.3)"/><path class="cls-1" d="M1356.83,760.72c3.73,8.21-.25,17.42-5,27.13a80.31,80.31,0,0,0-4.48,10.2c-1.74,4.73-4,5.23-9,2.74-4.48-2.74-8.71-7.47-8.71-14.19,0-3.24,1.24-8.21,5.72-18.42,2.49-5,4.23-9.46,3.24-10.45-3-2.49-19.17,13.69-29.12,33.85-5,10.2-7.47,20.41-7.47,27.88,0,11,4.48,17.67,11.2,17.92,18.67,0.25,35.84-18.92,45.79-33.85,2.24-3.73,6-4.73,7.47-.5,1.24,3.24,1.24,9.71-3.24,16.68-9.46,14.93-29.62,27.13-49,27.38-22.9.25-35.59-14.44-35.59-34.35,0-9,2.49-18.92,7.72-28.87,12.69-25.64,32.36-39.08,46.79-39.08C1342.39,744.79,1352.84,753.25,1356.83,760.72Z" transform="translate(-676.4 -678.3)"/><path class="cls-1" d="M1413.07,847.33c-16.43,0-23.89-8.21-23.89-21.16,0-15.68,12.2-37.33,21.65-52,4.73-8.21,8.46-14.19,6.72-14.19-2.24,0-25.88,15.68-39.08,37.08a333.61,333.61,0,0,0-23.4,46c-2,4.48-5.72,5.23-8.71,1.49-4-4.73-7.47-10.7-1.24-27.13,10-26.13,59.23-109.51,79.39-135.39,4-5,7.71-4,10,1a22.93,22.93,0,0,1,2,9.46c0,6.72-3,15.93-9,26.38-5,8.21-20.41,31.36-22.9,34.84,7.47-5.48,16.18-8.46,20.91-8.46,7.22,0,14.44,7.72,14.44,17.42a20.55,20.55,0,0,1-2.74,10.45c-13.69,24.39-19.91,34.84-22.65,40.82a40.38,40.38,0,0,0-3.24,14.68c0,5.23,1.25,8.46,4.73,8.46,8.71,0,21.9-17.67,29.37-32.85,1.74-3.73,5.72-4.23,7.72,0,1.24,3,3,8.71-.75,16.18C1445.18,834.88,1429,847.33,1413.07,847.33Z" transform="translate(-676.4 -678.3)"/></svg>