<?xml version="1.0" standalone="no"?>
<!DOCTYPE svg PUBLIC "-//W3C//DTD SVG 20010904//EN"
 "http://www.w3.org/TR/2001/REC-SVG-20010904/DTD/svg10.dtd">
<svg version="1.0" xmlns="http://www.w3.org/2000/svg"
 width="78.000000pt" height="78.000000pt" viewBox="0 0 78.000000 78.000000"
 preserveAspectRatio="xMidYMid meet">
<metadata>
Created by potrace 1.11, written by Peter Selinger 2001-2013
</metadata>
<g transform="translate(0.000000,78.000000) scale(0.100000,-0.100000)"
fill="#000000" stroke="none">
<path d="M275 761 c-109 -37 -185 -104 -238 -211 -29 -59 -32 -73 -32 -160 0
-85 4 -102 31 -160 57 -120 161 -199 292 -222 172 -29 339 60 416 222 28 58
31 75 31 160 -1 85 -4 102 -31 160 -39 82 -105 150 -188 190 -54 27 -78 33
-148 35 -59 2 -98 -2 -133 -14z"/>
</g>
</svg>
