<?xml version="1.0" encoding="UTF-8"?>
<svg width="296px" height="90px" viewBox="0 0 296 90" version="1.1" xmlns="http://www.w3.org/2000/svg" xmlns:xlink="http://www.w3.org/1999/xlink">
    <!-- Generator: Sketch 48.2 (47327) - http://www.bohemiancoding.com/sketch -->
    <title>Card Graph 2</title>
    <desc>Created with Sketch.</desc>
    <defs></defs>
    <g id="iPhone-7-Copy" stroke="none" stroke-width="1" fill="none" fill-rule="evenodd" transform="translate(-40.000000, -365.000000)">
        <g id="Card-Graph-2" transform="translate(39.000000, 365.000000)">
            <g id="Graph-2">
                <path d="M1.63809524,76.5424774 L296.182197,76.5424774" id="6" stroke="#CBCBCB" stroke-width="0.6" stroke-linecap="square"></path>
                <path d="M1.63809524,76.5424774 L1.63809524,0.448275862" id="6" stroke="#CBCBCB" stroke-width="0.6" stroke-linecap="square"></path>
                <path d="M2,50 C17.8746849,50 22.5826262,41.9999978 39,42 C55.4173738,42.0000022 51.6374017,39 67,39 C82.3625983,39 83.2666846,66.9999999 99,67 C114.733315,67.0000001 115.098151,50 131,50 C146.901849,50 147.449102,38.9999998 164,39 C180.550898,39.0000002 180.449089,63.0000002 197,63 C213.550911,62.9999998 214.747206,41.9999975 230,42 C245.252794,42.0000025 248.676731,45.8951287 264.57859,45.8951281 C280.480448,45.8951275 279.773621,67.0000012 296,67" id="line" stroke="#1DE9B6" stroke-width="3" transform="translate(149.000000, 53.000000) scale(-1, -1) translate(-149.000000, -53.000000) "></path>
            </g>
            <text id="Tid" font-family="Roboto-Regular, Roboto" font-size="10" font-weight="normal" line-spacing="16" fill="#485465" fill-opacity="0.87">
                <tspan x="273" y="89">Tid</tspan>
            </text>
        </g>
    </g>
</svg>