<?xml version="1.0" encoding="UTF-8"?>
<svg width="297px" height="71px" viewBox="0 0 297 71" version="1.1" xmlns="http://www.w3.org/2000/svg" xmlns:xlink="http://www.w3.org/1999/xlink">
    <!-- Generator: Sketch 48.2 (47327) - http://www.bohemiancoding.com/sketch -->
    <title>Graph</title>
    <desc>Created with Sketch.</desc>
    <defs>
        <linearGradient x1="50%" y1="0%" x2="50%" y2="130.15286%" id="linearGradient-1">
            <stop stop-color="#6EFFE8" offset="0%"></stop>
            <stop stop-color="#1DE9B6" offset="100%"></stop>
        </linearGradient>
    </defs>
    <g id="iPhone-7-Copy" stroke="none" stroke-width="1" fill="none" fill-rule="evenodd" transform="translate(-42.000000, -534.000000)">
        <g id="Card-Graph-3" transform="translate(16.000000, 153.000000)">
            <g id="Graph" transform="translate(25.000000, 381.000000)">
                <path d="M297,70.0987371 C297,71.2548008 297,95.1578775 297,66 C278.602122,66 274.729443,59 241,59 C207.270557,59 199.6313,66.2237505 182,66.2237505 C164.3687,66.2237505 144.6313,61.3627983 127,61.3627983 C109.3687,61.3627983 104.864721,52.0322775 88,52.0322775 C71.1352785,52.0322775 64.6312997,66 47,66 C29.3687003,66 24.9973475,61.3627983 2,61.3627983 L2,70.0987371" id="Path-4" fill="url(#linearGradient-1)"></path>
                <path d="M2.54603175,70.2786668 L297.090134,70.2786668" id="6" stroke="#CBCBCB" stroke-width="0.6" stroke-linecap="square"></path>
                <path d="M1.63809524,70.2786668 L1.63809524,1.00661251" id="6" stroke="#CBCBCB" stroke-width="0.6" stroke-linecap="square"></path>
            </g>
        </g>
    </g>
</svg>